<svg width="20" height="16" viewBox="0 0 20 16" fill="none" xmlns="http://www.w3.org/2000/svg">
<rect width="20" height="16" fill="#CDCDCD"/>
<rect width="1440" height="1116" transform="translate(-1171 -118)" fill="white"/>
<mask id="path-1-inside-1_0_1" fill="white">
<path d="M9.69 0C8.7518 0.000205607 7.84263 0.320331 7.11706 0.905952C6.39148 1.49157 5.89429 2.30654 5.71 3.21231L5.6375 3.57169C5.61823 3.65208 5.61559 3.73546 5.62974 3.81688C5.64389 3.89829 5.67454 3.97606 5.71986 4.04556C5.76519 4.11507 5.82426 4.17487 5.89355 4.22142C5.96285 4.26797 6.04095 4.30031 6.12321 4.31651C6.20547 4.3327 6.29019 4.33243 6.37234 4.31571C6.45449 4.29898 6.53238 4.26614 6.60137 4.21915C6.67035 4.17216 6.72903 4.11198 6.77389 4.04219C6.81875 3.97239 6.84889 3.89442 6.8625 3.81292L6.93625 3.45477C7.0748 2.7832 7.46155 2.18615 8.02159 1.77926C8.58162 1.37237 9.27509 1.1846 9.96769 1.25232C10.6603 1.32004 11.3027 1.63843 11.7705 2.14581C12.2384 2.6532 12.4983 3.31348 12.5 3.99877C12.5 4.73333 12.2037 5.43782 11.6763 5.95735C11.1489 6.47687 10.4335 6.7689 9.6875 6.76923H0.625C0.45924 6.76923 0.300269 6.83407 0.183058 6.94947C0.0658481 7.06488 0 7.22141 0 7.38462C0 7.54783 0.0658481 7.70435 0.183058 7.81976C0.300269 7.93517 0.45924 8 0.625 8H9.6875C10.7475 7.97443 11.7554 7.54194 12.496 6.79485C13.2367 6.04775 13.6514 5.04521 13.6517 4.0012C13.652 2.95719 13.2379 1.9544 12.4978 1.20686C11.7576 0.459308 10.75 0.0262118 9.69 0ZM16.875 5.53846C16.0462 5.53846 15.2513 5.86264 14.6653 6.43967C14.0792 7.01671 13.75 7.79933 13.75 8.61539C13.75 8.77859 13.8158 8.93512 13.9331 9.05053C14.0503 9.16594 14.2092 9.23077 14.375 9.23077C14.5408 9.23077 14.6997 9.16594 14.8169 9.05053C14.9342 8.93512 15 8.77859 15 8.61539C15 8.25025 15.11 7.89332 15.316 7.58972C15.522 7.28612 15.8149 7.04949 16.1575 6.90976C16.5001 6.77003 16.8771 6.73347 17.2408 6.8047C17.6045 6.87594 17.9386 7.05177 18.2008 7.30996C18.463 7.56815 18.6416 7.8971 18.714 8.25522C18.7863 8.61334 18.7492 8.98454 18.6073 9.32188C18.4654 9.65922 18.225 9.94755 17.9167 10.1504C17.6084 10.3533 17.2458 10.4615 16.875 10.4615H0.625C0.45924 10.4615 0.300269 10.5264 0.183058 10.6418C0.0658481 10.7572 0 10.9137 0 11.0769C0 11.2401 0.0658481 11.3967 0.183058 11.5121C0.300269 11.6275 0.45924 11.6923 0.625 11.6923H12.8125C13.2269 11.6931 13.624 11.856 13.9164 12.1451C14.2089 12.4342 14.3727 12.8258 14.3719 13.2338C14.371 13.6419 14.2056 14.0329 13.912 14.3208C13.6184 14.6087 13.2207 14.77 12.8062 14.7692C12.433 14.7695 12.0716 14.6396 11.7863 14.4026C11.501 14.1656 11.3101 13.8368 11.2475 13.4745L11.2413 13.4375C11.23 13.3559 11.2023 13.2773 11.1596 13.2065C11.117 13.1356 11.0603 13.0739 10.993 13.025C10.9257 12.9761 10.849 12.941 10.7677 12.9218C10.6863 12.9025 10.6019 12.8996 10.5194 12.9131C10.4368 12.9266 10.3579 12.9563 10.2872 13.0004C10.2166 13.0445 10.1556 13.1022 10.108 13.1699C10.0604 13.2376 10.0271 13.3141 10.01 13.3947C9.99298 13.4754 9.99254 13.5586 10.0087 13.6394L10.015 13.6763C10.1261 14.326 10.4675 14.916 10.9785 15.3414C11.4895 15.7668 12.1371 16.0001 12.8062 16C13.5528 16.0003 14.2691 15.7089 14.7976 15.1896C15.3261 14.6704 15.6237 13.9659 15.625 13.2308C15.625 12.6609 15.45 12.1317 15.1513 11.6923H16.875C17.7038 11.6923 18.4987 11.3681 19.0847 10.7911C19.6708 10.2141 20 9.43144 20 8.61539C20 7.79933 19.6708 7.01671 19.0847 6.43967C18.4987 5.86264 17.7038 5.53846 16.875 5.53846Z"/>
</mask>
<path d="M9.69 0C8.7518 0.000205607 7.84263 0.320331 7.11706 0.905952C6.39148 1.49157 5.89429 2.30654 5.71 3.21231L5.6375 3.57169C5.61823 3.65208 5.61559 3.73546 5.62974 3.81688C5.64389 3.89829 5.67454 3.97606 5.71986 4.04556C5.76519 4.11507 5.82426 4.17487 5.89355 4.22142C5.96285 4.26797 6.04095 4.30031 6.12321 4.31651C6.20547 4.3327 6.29019 4.33243 6.37234 4.31571C6.45449 4.29898 6.53238 4.26614 6.60137 4.21915C6.67035 4.17216 6.72903 4.11198 6.77389 4.04219C6.81875 3.97239 6.84889 3.89442 6.8625 3.81292L6.93625 3.45477C7.0748 2.7832 7.46155 2.18615 8.02159 1.77926C8.58162 1.37237 9.27509 1.1846 9.96769 1.25232C10.6603 1.32004 11.3027 1.63843 11.7705 2.14581C12.2384 2.6532 12.4983 3.31348 12.5 3.99877C12.5 4.73333 12.2037 5.43782 11.6763 5.95735C11.1489 6.47687 10.4335 6.7689 9.6875 6.76923H0.625C0.45924 6.76923 0.300269 6.83407 0.183058 6.94947C0.0658481 7.06488 0 7.22141 0 7.38462C0 7.54783 0.0658481 7.70435 0.183058 7.81976C0.300269 7.93517 0.45924 8 0.625 8H9.6875C10.7475 7.97443 11.7554 7.54194 12.496 6.79485C13.2367 6.04775 13.6514 5.04521 13.6517 4.0012C13.652 2.95719 13.2379 1.9544 12.4978 1.20686C11.7576 0.459308 10.75 0.0262118 9.69 0ZM16.875 5.53846C16.0462 5.53846 15.2513 5.86264 14.6653 6.43967C14.0792 7.01671 13.75 7.79933 13.75 8.61539C13.75 8.77859 13.8158 8.93512 13.9331 9.05053C14.0503 9.16594 14.2092 9.23077 14.375 9.23077C14.5408 9.23077 14.6997 9.16594 14.8169 9.05053C14.9342 8.93512 15 8.77859 15 8.61539C15 8.25025 15.11 7.89332 15.316 7.58972C15.522 7.28612 15.8149 7.04949 16.1575 6.90976C16.5001 6.77003 16.8771 6.73347 17.2408 6.8047C17.6045 6.87594 17.9386 7.05177 18.2008 7.30996C18.463 7.56815 18.6416 7.8971 18.714 8.25522C18.7863 8.61334 18.7492 8.98454 18.6073 9.32188C18.4654 9.65922 18.225 9.94755 17.9167 10.1504C17.6084 10.3533 17.2458 10.4615 16.875 10.4615H0.625C0.45924 10.4615 0.300269 10.5264 0.183058 10.6418C0.0658481 10.7572 0 10.9137 0 11.0769C0 11.2401 0.0658481 11.3967 0.183058 11.5121C0.300269 11.6275 0.45924 11.6923 0.625 11.6923H12.8125C13.2269 11.6931 13.624 11.856 13.9164 12.1451C14.2089 12.4342 14.3727 12.8258 14.3719 13.2338C14.371 13.6419 14.2056 14.0329 13.912 14.3208C13.6184 14.6087 13.2207 14.77 12.8062 14.7692C12.433 14.7695 12.0716 14.6396 11.7863 14.4026C11.501 14.1656 11.3101 13.8368 11.2475 13.4745L11.2413 13.4375C11.23 13.3559 11.2023 13.2773 11.1596 13.2065C11.117 13.1356 11.0603 13.0739 10.993 13.025C10.9257 12.9761 10.849 12.941 10.7677 12.9218C10.6863 12.9025 10.6019 12.8996 10.5194 12.9131C10.4368 12.9266 10.3579 12.9563 10.2872 13.0004C10.2166 13.0445 10.1556 13.1022 10.108 13.1699C10.0604 13.2376 10.0271 13.3141 10.01 13.3947C9.99298 13.4754 9.99254 13.5586 10.0087 13.6394L10.015 13.6763C10.1261 14.326 10.4675 14.916 10.9785 15.3414C11.4895 15.7668 12.1371 16.0001 12.8062 16C13.5528 16.0003 14.2691 15.7089 14.7976 15.1896C15.3261 14.6704 15.6237 13.9659 15.625 13.2308C15.625 12.6609 15.45 12.1317 15.1513 11.6923H16.875C17.7038 11.6923 18.4987 11.3681 19.0847 10.7911C19.6708 10.2141 20 9.43144 20 8.61539C20 7.79933 19.6708 7.01671 19.0847 6.43967C18.4987 5.86264 17.7038 5.53846 16.875 5.53846Z" fill="#101828" stroke="#101828" stroke-width="10" mask="url(#path-1-inside-1_0_1)"/>
</svg>
